/* XPM */
static char *_494649fc53149a788a6143b6adb13579VQXp590dTllL3T8[] = {
/* columns rows colors chars-per-pixel */
"40 40 16 2 ",
"   c #000000",
".  c #b30000",
",  c #660000",
"h  c #b4765f",
"k  c #7e534d",
"t  c #451f2c",
"l  c #fecea8",
"c  c #da9171",
"s  c #601335",
"g  c #ababb7",
"d  c #420c24",
"k  c #601335",
"r  c #a72d3a",
"m  c #dce5e4",
"x  c #301d31",
"/  c #55313f",
/* pixels */
". . . . . . . . . . . . . . . . . . . . . . . . . . . . . . . . . . . . . . . . ",
". . . . . . . . . . . . . . . . . . . . . . . . . . . . . . . . . . . . . . . . ",
". . . . . . . . . . . . . . . . . . . . . . . . . . . . . . . . . . . . . . . . ",
". . . . . , . . . . . . . , . . . . . . . , . . . . . . . . . . . . . . . . . . ",
". . . . . . . . . . . . . . . k k h h h h h h h h h h h h . . . . . . . . . . . ",
". . . . . . . . . . . . . . . k k h h h h h h h h h h h h . . . . . . . . . . . ",
". . . . . . . . . . , . . t t t t k k k k k k k k k k k k h h . , . . . . . . . ",
". . . . . . . . . . . . . t t t t k k k k k k k k k k k k h h . . . . . . . . . ",
". . . . . . . . . . . t t t t t t k k k k k k k k k k k k k k . . . . , . . . . ",
". . . . . . . . . . . t t t t t t k k k k k k k k k k k k k k . . . . . . . . . ",
". . . . . . . . . . . t t t t t t c c c c c c c c c c . . . . . . . . . . . . . ",
". . . . . . . . . . . t t t t t t c c c c c c c c c c . . . . . . . . . . . . . ",
". . . . . . . . . , . t t t t t t l l l l l l l l l l . . . . . . . . . . . . . ",
". . . . . . . . . . . t t t t t t l l l l l l l l l l . . . . , . . . . . . . . ",
". . . . . . . . . . . t t t t h h t t l l l l l l t t . . . . h h . . . . . . . ",
". . . . . . . . . . . t t t t h h t t l l l l l l t t . . . . h h . . . . . . . ",
". . . . . . . . . . . . . t t c c l l l l l l l l l l . . . . h h . . . . . . . ",
". . . . . . . . . . . . . t t c c l l l l l l l l l l . . . . h h . . . . . . . ",
". . . . . . . . . . . . . h h c c l l l l l l l l l l . . . . h h . . . . . . . ",
". . . . . . . . . . . . . h h c c l l l l l l l l l l . . . . h h . . . . . . . ",
". . . . . , . . . . . . . d d d d s s s s g g g g s s . . . . t t . . . . . . . ",
". . . . . . . . . . . . . d d d d s s s s g g g g s s . . . . t t . . . . . . . ",
". . . . . . . . . . . k k k k k k r r m m m m m m r r r r r r l l . . . . . . . ",
". . . . . . . . . . . k k k k k k r r m m m m m m r r r r r r l l . . . . . . . ",
". . . . . . . . . . . k k k k k k r r m m m m m m r r . . . , t t . . . . . . . ",
". . . . . . . . . . . k k k k k k r r m m m m m m r r . . . . t t . . . . . . . ",
". . . . . . . . . , . l l x x x x / / . . . . . . / / . . . . h h . . . . . . . ",
". . . . . . . . . . . l l x x x x / / . . . . . . / / . . . . h h . . . . . . . ",
". . . . . . , . . . . . . / / / / . . . . . . / / m m . . . . h h . . . . . . . ",
". . . . . . . . . . . . . / / / / . . . . . . / / m m . . . . h h . . . . . . . ",
". . . . . . . . . . . . . m m . . . . . . . . / / . . . . . . h h . . . . . . . ",
". . . , . . . . . . . . . m m . . . . . . . . / / . . . . . , . . . . . . . . . ",
". . . . . . . . . . . . . . . . . . . . . . . . . . . . . . . . . . . . . . . . ",
". . . . . . . . . . . . . . . . . . . . . . . . . . . . . . . . . . . . . . . . ",
". . . . . . . . . . . . . . . . . . . . . . . . . . . . . . . . . . . . . . . . ",
". . . . . . . . . . . . . . . . . . . . . , . . . . . . . . . . . . . . . . . . ",
". . . . . . . . . . . . . . . . . . . . . . . . . . . . . . . . . . . . . . . . ",
". . . . . . . . . . . . . . . . , . . . . . . . . . . . . . . . . . , . . . . . ",
". . . . . . . . . . . . . . . . . . . . . . . . . . . . . . . . . . . . . . . . ",
". . . . . . . . . . . . . . . . . . . . . . . . . . . . . . . . . . . . . . . . ",
};
